<?xml version="1.0" encoding="UTF-8" standalone="no"?>
<!-- Created with Inkscape (http://www.inkscape.org/) -->

<svg
   xmlns:dc="http://purl.org/dc/elements/1.1/"
   xmlns:cc="http://creativecommons.org/ns#"
   xmlns:rdf="http://www.w3.org/1999/02/22-rdf-syntax-ns#"
   xmlns:svg="http://www.w3.org/2000/svg"
   xmlns="http://www.w3.org/2000/svg"
   xmlns:xlink="http://www.w3.org/1999/xlink"
   xmlns:sodipodi="http://sodipodi.sourceforge.net/DTD/sodipodi-0.dtd"
   xmlns:inkscape="http://www.inkscape.org/namespaces/inkscape"
   width="1000"
   height="600"
   id="svg2"
   version="1.1"
   inkscape:version="0.48.3.1 r9886"
   sodipodi:docname="menu.svg">
  <defs
     id="defs4">
    <pattern
       inkscape:collect="always"
       xlink:href="#Checkerboard"
       id="pattern5215"
       patternTransform="matrix(8,0,0,8.0000013,560,782.36218)" />
    <pattern
       inkscape:stockid="Checkerboard"
       id="Checkerboard"
       patternTransform="translate(0,0) scale(10,10)"
       height="2"
       width="2"
       patternUnits="userSpaceOnUse"
       inkscape:collect="always">
      <rect
         id="rect4570"
         height="1"
         width="1"
         y="0"
         x="0"
         style="fill:black;stroke:none" />
      <rect
         id="rect4572"
         height="1"
         width="1"
         y="1"
         x="1"
         style="fill:black;stroke:none" />
    </pattern>
  </defs>
  <sodipodi:namedview
     id="base"
     pagecolor="#ffffff"
     bordercolor="#666666"
     borderopacity="1.0"
     inkscape:pageopacity="0.0"
     inkscape:pageshadow="2"
     inkscape:zoom="0.5"
     inkscape:cx="925.74404"
     inkscape:cy="352.97706"
     inkscape:document-units="px"
     inkscape:current-layer="layer1"
     showgrid="false"
     inkscape:snap-bbox="true"
     inkscape:object-paths="true"
     inkscape:snap-intersection-paths="true"
     inkscape:object-nodes="true"
     inkscape:snap-midpoints="true"
     inkscape:snap-smooth-nodes="true"
     inkscape:snap-object-midpoints="true"
     inkscape:snap-center="true"
     inkscape:snap-nodes="true"
     inkscape:snap-bbox-edge-midpoints="true"
     inkscape:bbox-nodes="true"
     inkscape:bbox-paths="true"
     inkscape:window-width="1600"
     inkscape:window-height="844"
     inkscape:window-x="0"
     inkscape:window-y="27"
     inkscape:window-maximized="1"
     showguides="true"
     inkscape:guide-bbox="true">
    <inkscape:grid
       type="xygrid"
       id="grid3853"
       empspacing="5"
       visible="true"
       enabled="true"
       snapvisiblegridlinesonly="true" />
  </sodipodi:namedview>
  <metadata
     id="metadata7">
    <rdf:RDF>
      <cc:Work
         rdf:about="">
        <dc:format>image/svg+xml</dc:format>
        <dc:type
           rdf:resource="http://purl.org/dc/dcmitype/StillImage" />
        <dc:title />
      </cc:Work>
    </rdf:RDF>
  </metadata>
  <g
     inkscape:label="Layer 1"
     inkscape:groupmode="layer"
     id="layer1"
     transform="translate(0,-452.3622)">
    <path
       style="color:#000000;fill:#c7c7c7;fill-opacity:0.80208333;fill-rule:nonzero;stroke:none;stroke-width:8;marker:none;visibility:visible;display:inline;overflow:visible;enable-background:accumulate"
       d="m -361.375,607.75 c -16.60712,0 -29.8125,21.65059 -29.8125,48.65625 l 0,62.28125 86.1875,0 0,-9.96875 c 0,-10.93236 5.40934,-19.90625 11.96875,-19.90625 l 19.625,0 0,-81.0625 z m 94.78125,0 0,81.0625 19.625,0 c 6.55941,0 11.96875,8.97389 11.96875,19.90625 l 0,9.96875 86.1875,0 0,-62.28125 c 0,-27.00566 -13.20538,-48.65625 -29.8125,-48.65625 z m -124.59375,122.3125 0,62.21875 c 0,27.00567 13.20538,48.71875 29.8125,48.71875 l 87.96875,0 0,-81.09375 -19.625,0 C -299.59066,759.90625 -305,750.93236 -305,740 l 0,-9.9375 z m 156.1875,0 0,9.9375 c 0,10.93236 -5.40934,19.90625 -11.96875,19.90625 l -19.625,0 0,81.09375 87.96875,0 c 16.60712,0 29.8125,-21.71308 29.8125,-48.71875 l 0,-62.21875 z"
       id="rect3844"
       inkscape:connector-curvature="0"
       sodipodi:nodetypes="ssccssccsccssccssccssccsscccssccsscc" />
    <path
       inkscape:export-ydpi="90"
       inkscape:export-xdpi="90"
       inkscape:export-filename="/home/jan/development/projects/curvy/images/paddle.png"
       id="path3819"
       d="m -361.36,596.36218 c -20.20409,0 -36.64,26.81869 -36.64,60.04444 l 0,135.86667 c 0,33.22576 16.43591,60.08889 36.64,60.08889 l 182.72,0 c 20.20409,0 36.64,-26.86313 36.64,-60.08889 l 0,-135.86667 c 0,-33.22575 -16.43591,-60.04444 -36.64,-60.04444 l -182.72,0 z m 0,11.37778 87.94667,0 0,81.06666 -19.62667,0 c -6.55941,0 -11.94667,8.97876 -11.94667,19.91112 l 0,9.95555 -86.18666,0 0,-62.26667 c 0,-27.00566 13.20621,-48.66666 29.81333,-48.66666 z m 94.77333,0 87.94667,0 c 16.60712,0 29.81333,21.661 29.81333,48.66666 l 0,62.26667 -86.18666,0 0,-9.95555 c 0,-10.93236 -5.38726,-19.91112 -11.94667,-19.91112 l -19.62667,0 0,-81.06666 z m -26.45333,92.44444 46.08,0 c 2.89552,0 5.12,3.70747 5.12,8.53334 l 0,31.28888 c 0,4.82587 -2.22448,8.53334 -5.12,8.53334 l -46.08,0 c -2.89552,0 -5.12,-3.70747 -5.12,-8.53334 l 0,-31.28888 c 0,-4.82587 2.22448,-8.53334 5.12,-8.53334 z m -98.13333,29.86667 86.18666,0 0,9.95555 c 0,10.93236 5.38726,19.91112 11.94667,19.91112 l 19.62667,0 0,81.06666 -87.94667,0 c -16.60712,0 -29.81333,-21.70544 -29.81333,-48.71111 l 0,-62.22222 z m 156.16,0 86.18666,0 0,62.22222 c 0,27.00567 -13.20621,48.71111 -29.81333,48.71111 l -87.94667,0 0,-81.06666 19.62667,0 c 6.55941,0 11.94667,-8.97876 11.94667,-19.91112 l 0,-9.95555 z"
       style="font-size:medium;font-style:normal;font-variant:normal;font-weight:normal;font-stretch:normal;text-indent:0;text-align:start;text-decoration:none;line-height:normal;letter-spacing:normal;word-spacing:normal;text-transform:none;direction:ltr;block-progression:tb;writing-mode:lr-tb;text-anchor:start;baseline-shift:baseline;color:#000000;fill:#484848;fill-opacity:0.765625;stroke:none;stroke-width:8;marker:none;visibility:visible;display:inline;overflow:visible;enable-background:accumulate;font-family:Sans;-inkscape-font-specification:Sans"
       inkscape:connector-curvature="0" />
    <path
       sodipodi:nodetypes="sssssssss"
       inkscape:connector-curvature="0"
       id="path3855"
       d="m -293.03125,700.1875 c -2.89552,0 -5.125,3.70538 -5.125,8.53125 l 0,31.28125 c 0,4.82587 2.22948,8.53125 5.125,8.53125 l 46.0625,0 c 2.89552,0 5.125,-3.70538 5.125,-8.53125 l 0,-31.28125 c 0,-4.82587 -2.22948,-8.53125 -5.125,-8.53125 z"
       style="color:#000000;fill:#c2c2c2;fill-opacity:0.21354167;fill-rule:nonzero;stroke:none;stroke-width:8;marker:none;visibility:visible;display:inline;overflow:visible;enable-background:accumulate" />
  </g>
</svg>
