<?xml version="1.0" encoding="UTF-8" standalone="no"?>
<!-- Created with Inkscape (http://www.inkscape.org/) -->

<svg
   xmlns:dc="http://purl.org/dc/elements/1.1/"
   xmlns:cc="http://creativecommons.org/ns#"
   xmlns:rdf="http://www.w3.org/1999/02/22-rdf-syntax-ns#"
   xmlns:svg="http://www.w3.org/2000/svg"
   xmlns="http://www.w3.org/2000/svg"
   xmlns:sodipodi="http://sodipodi.sourceforge.net/DTD/sodipodi-0.dtd"
   xmlns:inkscape="http://www.inkscape.org/namespaces/inkscape"
   width="744.09448819"
   height="1052.3622047"
   id="svg2"
   version="1.1"
   inkscape:version="0.48.3.1 r9886"
   sodipodi:docname="paddle.svg">
  <defs
     id="defs4" />
  <sodipodi:namedview
     id="base"
     pagecolor="#ffffff"
     bordercolor="#666666"
     borderopacity="1.0"
     inkscape:pageopacity="0.0"
     inkscape:pageshadow="2"
     inkscape:zoom="1"
     inkscape:cx="154.49705"
     inkscape:cy="201.65964"
     inkscape:document-units="px"
     inkscape:current-layer="layer1"
     showgrid="false"
     inkscape:snap-bbox="true"
     inkscape:object-paths="true"
     inkscape:snap-intersection-paths="true"
     inkscape:object-nodes="true"
     inkscape:snap-midpoints="true"
     inkscape:snap-smooth-nodes="true"
     inkscape:snap-object-midpoints="true"
     inkscape:snap-center="true"
     inkscape:snap-nodes="true"
     inkscape:snap-bbox-edge-midpoints="true"
     inkscape:bbox-nodes="true"
     inkscape:bbox-paths="true"
     inkscape:window-width="1680"
     inkscape:window-height="998"
     inkscape:window-x="1024"
     inkscape:window-y="24"
     inkscape:window-maximized="1">
    <inkscape:grid
       type="xygrid"
       id="grid3853" />
  </sodipodi:namedview>
  <metadata
     id="metadata7">
    <rdf:RDF>
      <cc:Work
         rdf:about="">
        <dc:format>image/svg+xml</dc:format>
        <dc:type
           rdf:resource="http://purl.org/dc/dcmitype/StillImage" />
        <dc:title></dc:title>
      </cc:Work>
    </rdf:RDF>
  </metadata>
  <g
     inkscape:label="Layer 1"
     inkscape:groupmode="layer"
     id="layer1">
    <path
       style="color:#000000;fill:#c7c7c7;fill-opacity:0.80208331;fill-rule:nonzero;stroke:none;stroke-width:8;marker:none;visibility:visible;display:inline;overflow:visible;enable-background:accumulate"
       d="m 52.625,607.75 c -16.607119,0 -29.8125,21.65059 -29.8125,48.65625 l 0,62.28125 86.1875,0 0,-9.96875 c 0,-10.93236 5.40934,-19.90625 11.96875,-19.90625 l 19.625,0 0,-81.0625 z m 94.78125,0 0,81.0625 19.625,0 c 6.55941,0 11.96875,8.97389 11.96875,19.90625 l 0,9.96875 86.1875,0 0,-62.28125 C 265.1875,629.40059 251.98212,607.75 235.375,607.75 z M 22.8125,730.0625 l 0,62.21875 C 22.8125,819.28692 36.017881,841 52.625,841 l 87.96875,0 0,-81.09375 -19.625,0 C 114.40934,759.90625 109,750.93236 109,740 l 0,-9.9375 z m 156.1875,0 0,9.9375 c 0,10.93236 -5.40934,19.90625 -11.96875,19.90625 l -19.625,0 0,81.09375 87.96875,0 c 16.60712,0 29.8125,-21.71308 29.8125,-48.71875 l 0,-62.21875 z"
       id="rect3844"
       inkscape:connector-curvature="0"
       sodipodi:nodetypes="ssccssccsccssccssccssccsscccssccsscc" />
    <rect
       ry="38.222221"
       rx="38.933334"
       y="234.375"
       x="20"
       height="172"
       width="292"
       id="rect3842"
       style="color:#000000;fill:#000000;stroke:none;stroke-width:8;stroke-miterlimit:4;stroke-opacity:0.29166666000000002;stroke-dasharray:none;marker:none;visibility:visible;display:inline;overflow:visible;enable-background:accumulate;fill-opacity:0.20833333" />
    <rect
       style="color:#000000;fill:none;fill-opacity:0.05882353000000000;fill-rule:nonzero;stroke:#000000;stroke-width:8;stroke-miterlimit:4;stroke-opacity:0.25520832999999998;stroke-dasharray:none;marker:none;visibility:visible;display:inline;overflow:visible;enable-background:accumulate"
       id="rect2985"
       width="292"
       height="172"
       x="20"
       y="34.362183"
       rx="38.933334"
       ry="38.222221" />
    <rect
       ry="10"
       rx="10"
       y="99.362183"
       x="129"
       height="42"
       width="74"
       id="rect3755"
       style="color:#000000;fill:none;fill-opacity:0.05882353000000000;fill-rule:nonzero;stroke:#000000;stroke-width:8;stroke-miterlimit:4;stroke-opacity:0.25520832999999998;stroke-dasharray:none;marker:none;visibility:visible;display:inline;overflow:visible;enable-background:accumulate" />
    <path
       style="fill:none;stroke:#000000;stroke-width:8;stroke-linecap:butt;stroke-linejoin:miter;stroke-opacity:0.25520832999999998;color:#000000;stroke-miterlimit:4;stroke-dasharray:none;stroke-dashoffset:0;marker:none;visibility:visible;display:inline;overflow:visible;enable-background:accumulate"
       d="m 20,120.36218 109,0"
       id="path3757"
       inkscape:connector-curvature="0" />
    <path
       style="fill:none;stroke:#000000;stroke-width:8;stroke-linecap:butt;stroke-linejoin:miter;stroke-opacity:0.25520832999999998;color:#000000;stroke-miterlimit:4;stroke-dasharray:none;stroke-dashoffset:0;marker:none;visibility:visible;display:inline;overflow:visible;enable-background:accumulate"
       d="m 203,120.36218 109,0 0,0"
       id="path3759"
       inkscape:connector-curvature="0" />
    <path
       style="fill:none;stroke:#000000;stroke-width:8;stroke-linecap:butt;stroke-linejoin:miter;stroke-opacity:0.25520832999999998;color:#000000;stroke-miterlimit:4;stroke-dasharray:none;stroke-dashoffset:0;marker:none;visibility:visible;display:inline;overflow:visible;enable-background:accumulate"
       d="m 166,99.362183 0,-65"
       id="path3761"
       inkscape:connector-curvature="0" />
    <path
       style="fill:none;stroke:#000000;stroke-width:8;stroke-linecap:butt;stroke-linejoin:miter;stroke-opacity:0.25520832999999998;color:#000000;stroke-miterlimit:4;stroke-dasharray:none;stroke-dashoffset:0;marker:none;visibility:visible;display:inline;overflow:visible;enable-background:accumulate"
       d="m 166,141.36218 0,65"
       id="path3763"
       inkscape:connector-curvature="0" />
    <path
       style="font-size:medium;font-style:normal;font-variant:normal;font-weight:normal;font-stretch:normal;text-indent:0;text-align:start;text-decoration:none;line-height:normal;letter-spacing:normal;word-spacing:normal;text-transform:none;direction:ltr;block-progression:tb;writing-mode:lr-tb;text-anchor:start;baseline-shift:baseline;color:#000000;fill:#000000;fill-opacity:0.25520833;stroke:none;stroke-width:8;marker:none;visibility:visible;display:inline;overflow:visible;enable-background:accumulate;font-family:Sans;-inkscape-font-specification:Sans"
       d="M 58.9375 230.375 C 35.260833 230.375 16 249.23189 16 272.59375 L 16 368.125 C 16 391.48686 35.260833 410.375 58.9375 410.375 L 273.0625 410.375 C 296.73917 410.375 316 391.48686 316 368.125 L 316 272.59375 C 316 249.23189 296.73917 230.375 273.0625 230.375 L 58.9375 230.375 z M 58.9375 238.375 L 162 238.375 L 162 295.375 L 139 295.375 C 131.31319 295.375 125 301.68819 125 309.375 L 125 316.375 L 24 316.375 L 24 272.59375 C 24 253.60539 39.476033 238.375 58.9375 238.375 z M 170 238.375 L 273.0625 238.375 C 292.52397 238.375 308 253.60539 308 272.59375 L 308 316.375 L 207 316.375 L 207 309.375 C 207 301.68819 200.68681 295.375 193 295.375 L 170 295.375 L 170 238.375 z M 139 303.375 L 193 303.375 C 196.39319 303.375 199 305.98181 199 309.375 L 199 331.375 C 199 334.76819 196.39319 337.375 193 337.375 L 139 337.375 C 135.60681 337.375 133 334.76819 133 331.375 L 133 309.375 C 133 305.98181 135.60681 303.375 139 303.375 z M 24 324.375 L 125 324.375 L 125 331.375 C 125 339.06181 131.31319 345.375 139 345.375 L 162 345.375 L 162 402.375 L 58.9375 402.375 C 39.476033 402.375 24 387.11336 24 368.125 L 24 324.375 z M 207 324.375 L 308 324.375 L 308 368.125 C 308 387.11336 292.52397 402.375 273.0625 402.375 L 170 402.375 L 170 345.375 L 193 345.375 C 200.68681 345.375 207 339.06181 207 331.375 L 207 324.375 z "
       id="rect3782"
       inkscape:export-filename="/home/jan/development/projects/curvy/images/paddle.png"
       inkscape:export-xdpi="90"
       inkscape:export-ydpi="90" />
    <path
       inkscape:export-ydpi="90"
       inkscape:export-xdpi="90"
       inkscape:export-filename="/home/jan/development/projects/curvy/images/paddle.png"
       id="path3819"
       d="m 52.64,596.36218 c -20.204089,0 -36.64,26.81869 -36.64,60.04444 l 0,135.86667 c 0,33.22576 16.435911,60.08889 36.64,60.08889 l 182.72,0 c 20.20409,0 36.64,-26.86313 36.64,-60.08889 l 0,-135.86667 c 0,-33.22575 -16.43591,-60.04444 -36.64,-60.04444 l -182.72,0 z m 0,11.37778 87.94667,0 0,81.06666 -19.62667,0 c -6.55941,0 -11.94667,8.97876 -11.94667,19.91112 l 0,9.95555 -86.186663,0 0,-62.26667 c 0,-27.00566 13.206214,-48.66666 29.813333,-48.66666 z m 94.77333,0 87.94667,0 c 16.60712,0 29.81333,21.661 29.81333,48.66666 l 0,62.26667 -86.18666,0 0,-9.95555 c 0,-10.93236 -5.38726,-19.91112 -11.94667,-19.91112 l -19.62667,0 0,-81.06666 z M 120.96,700.1844 l 46.08,0 c 2.89552,0 5.12,3.70747 5.12,8.53334 l 0,31.28888 c 0,4.82587 -2.22448,8.53334 -5.12,8.53334 l -46.08,0 c -2.89552,0 -5.12,-3.70747 -5.12,-8.53334 l 0,-31.28888 c 0,-4.82587 2.22448,-8.53334 5.12,-8.53334 z m -98.133333,29.86667 86.186663,0 0,9.95555 c 0,10.93236 5.38726,19.91112 11.94667,19.91112 l 19.62667,0 0,81.06666 -87.94667,0 c -16.607119,0 -29.813333,-21.70544 -29.813333,-48.71111 l 0,-62.22222 z m 156.160003,0 86.18666,0 0,62.22222 c 0,27.00567 -13.20621,48.71111 -29.81333,48.71111 l -87.94667,0 0,-81.06666 19.62667,0 c 6.55941,0 11.94667,-8.97876 11.94667,-19.91112 l 0,-9.95555 z"
       style="font-size:medium;font-style:normal;font-variant:normal;font-weight:normal;font-stretch:normal;text-indent:0;text-align:start;text-decoration:none;line-height:normal;letter-spacing:normal;word-spacing:normal;text-transform:none;direction:ltr;block-progression:tb;writing-mode:lr-tb;text-anchor:start;baseline-shift:baseline;color:#000000;fill:#484848;fill-opacity:0.765625;stroke:none;stroke-width:8;marker:none;visibility:visible;display:inline;overflow:visible;enable-background:accumulate;font-family:Sans;-inkscape-font-specification:Sans"
       inkscape:connector-curvature="0" />
    <path
       sodipodi:nodetypes="sssssssss"
       inkscape:connector-curvature="0"
       id="path3855"
       d="m 120.96875,700.1875 c -2.89552,0 -5.125,3.70538 -5.125,8.53125 l 0,31.28125 c 0,4.82587 2.22948,8.53125 5.125,8.53125 l 46.0625,0 c 2.89552,0 5.125,-3.70538 5.125,-8.53125 l 0,-31.28125 c 0,-4.82587 -2.22948,-8.53125 -5.125,-8.53125 z"
       style="color:#000000;fill:#c2c2c2;fill-opacity:0.21354167;fill-rule:nonzero;stroke:none;stroke-width:8;marker:none;visibility:visible;display:inline;overflow:visible;enable-background:accumulate" />
  </g>
</svg>
